<?xml version="1.0" standalone="no"?>
<!DOCTYPE svg PUBLIC "-//W3C//DTD SVG 20010904//EN"
 "http://www.w3.org/TR/2001/REC-SVG-20010904/DTD/svg10.dtd">
<svg version="1.0" xmlns="http://www.w3.org/2000/svg"
 width="296.000000pt" height="284.000000pt" viewBox="0 0 296.000000 284.000000"
 preserveAspectRatio="xMidYMid meet">

<g transform="translate(0.000000,284.000000) scale(0.100000,-0.100000)"
fill="#000000" stroke="none">
<path d="M1384 2449 c-104 -13 -299 -73 -289 -89 2 -4 28 -10 57 -13 228 -25
617 -81 677 -97 278 -78 494 -274 606 -552 95 -235 92 -532 -7 -721 -50 -97
-175 -215 -279 -266 -72 -34 -361 -126 -1029 -325 l-74 -22 76 -32 c145 -61
234 -77 418 -76 145 1 177 4 261 26 139 37 235 81 352 158 306 202 488 540
488 911 0 288 -103 551 -300 761 -243 260 -597 384 -957 337z"/>
<path d="M586 1918 c-8 -13 -33 -61 -55 -108 -185 -397 -106 -876 203 -1217
44 -49 204 -178 212 -171 2 3 -134 1153 -150 1266 l-5 32 273 0 273 0 52 -317
c29 -175 55 -327 58 -339 l4 -21 112 18 c450 74 489 84 554 152 62 64 76 99
81 202 3 74 0 102 -18 155 -51 152 -152 260 -285 303 -65 22 -109 25 -630 42
-242 8 -490 17 -552 20 -109 6 -112 5 -127 -17z"/>
</g>
</svg>
